<svg xmlns="http://www.w3.org/2000/svg" viewBox="0 0 64 48" role="img" aria-labelledby="title">
  <title id="title">AIWoven compact logo</title>
  <defs><linearGradient id="g" x1="8" y1="8" x2="56" y2="42" gradientUnits="userSpaceOnUse"><stop stop-color="#22d3ee"/><stop offset=".52" stop-color="#38bdf8"/><stop offset="1" stop-color="#8b5cf6"/></linearGradient></defs>
  <path d="M6 12.5c0-3.6 4.4-5.3 6.8-2.6L27.1 26l-6.3 7.1L7.2 17.8A8 8 0 0 1 6 12.5Z" fill="none" stroke="url(#g)" stroke-width="7" stroke-linecap="round" stroke-linejoin="round"/>
  <path d="m20.8 33.1 8.1-9.2a4.2 4.2 0 0 1 6.3 0l8 9.2L55.4 18a8 8 0 0 0 1.8-5.1c0-3.7-4.6-5.3-6.9-2.4L39.5 23.9 35 18.8a4 4 0 0 0-6 0L24.5 24" fill="none" stroke="url(#g)" stroke-width="7" stroke-linecap="round" stroke-linejoin="round"/>
  <path d="m32 3 1.45 3.55L37 8l-3.55 1.45L32 13l-1.45-3.55L27 8l3.55-1.45L32 3Z" fill="#a5f3fc"/>
</svg>
