<svg xmlns="http://www.w3.org/2000/svg" viewBox="0 0 64 64"><rect width="64" height="64" rx="16" fill="#05070c"/><defs><linearGradient id="g" x1="8" y1="10" x2="56" y2="52" gradientUnits="userSpaceOnUse"><stop stop-color="#22d3ee"/><stop offset=".55" stop-color="#38bdf8"/><stop offset="1" stop-color="#8b5cf6"/></linearGradient></defs><path d="M8 19c0-3.5 4.3-5.2 6.7-2.6L28 31.6l-6.2 7L9.2 24.2A8 8 0 0 1 8 19Z" fill="none" stroke="url(#g)" stroke-width="7" stroke-linecap="round" stroke-linejoin="round"/><path d="m21.8 38.6 7.2-8.2a4 4 0 0 1 6 0l7.2 8.2 12.4-15.1a7.6 7.6 0 0 0 1.6-4.8c0-3.5-4.4-5-6.6-2.3L39.8 28.6 35 23.2a4 4 0 0 0-6 0l-4.8 5.4" fill="none" stroke="url(#g)" stroke-width="7" stroke-linecap="round" stroke-linejoin="round"/><path d="m32 6 1.4 3.5L37 11l-3.6 1.5L32 16l-1.4-3.5L27 11l3.6-1.5L32 6Z" fill="#a5f3fc"/></svg>
